<svg width="20" height="20" viewBox="0 0 20 20" fill="none" xmlns="http://www.w3.org/2000/svg">
<path opacity="0.32" d="M0.28099 17.6575C0.36966 18.5161 0.932605 19.1957 1.77688 19.3755C3.1095 19.6592 5.6216 20 10 20C14.3784 20 16.8905 19.6592 18.2232 19.3755C19.0674 19.1957 19.6303 18.5161 19.719 17.6575C19.8505 16.3844 20 14.0469 20 10C20 5.95305 19.8505 3.6156 19.719 2.34251C19.6303 1.48389 19.0674 0.80424 18.2231 0.624505C16.8905 0.34081 14.3784 0 10 0C5.6216 0 3.1095 0.34081 1.77688 0.624505C0.932605 0.80424 0.36966 1.48389 0.28099 2.34251C0.14952 3.6156 0 5.95305 0 10C0 14.0469 0.14952 16.3844 0.28099 17.6575Z" fill="#637381"/>
<path d="M11.9382 10.8559C13.263 10.1583 14.1663 8.76795 14.1663 7.16665C14.1663 4.8655 12.3008 3 9.99956 3C7.69841 3 5.83291 4.8655 5.83291 7.16665C5.83291 8.768 6.73626 10.1584 8.06116 10.856C6.28691 11.532 4.93216 13.1092 4.51251 15.0529C4.45446 15.3219 4.60246 15.5981 4.87341 15.6471C5.84581 15.8231 7.45616 16 10.0006 16C12.545 16 14.1554 15.8231 15.1278 15.6471C15.3977 15.5983 15.5454 15.3231 15.4876 15.0551C15.0685 13.1103 13.7133 11.5321 11.9382 10.8559Z" fill="#637381"/>
</svg>
